<?xml version="1.0" encoding="utf-8"?>
<!-- Generator: Adobe Illustrator 18.0.0, SVG Export Plug-In . SVG Version: 6.00 Build 0)  -->
<!DOCTYPE svg PUBLIC "-//W3C//DTD SVG 1.1//EN" "http://www.w3.org/Graphics/SVG/1.1/DTD/svg11.dtd">
<svg version="1.1" id="Layer_1" xmlns="http://www.w3.org/2000/svg" xmlns:xlink="http://www.w3.org/1999/xlink" x="0px" y="0px"
	 viewBox="0 0 2000 2000" enable-background="new 0 0 2000 2000" xml:space="preserve">
<g>
	<rect x="-1" fill="#43296E" width="2000" height="2000"/>
	<path fill="none" stroke="#FFFFFF" stroke-width="6" stroke-miterlimit="10" d="M1704.5,527V1105c0,98.1-79.5,177.6-177.6,177.6
		h-1047c-98.1,0-177.6-79.5-177.6-177.6V527"/>
	<path fill="none" stroke="#FFFFFF" stroke-width="6" stroke-miterlimit="10" d="M1343.5,527v476.7c0,44.9-36.4,81.4-81.4,81.4
		H744.8c-44.9,0-81.4-36.4-81.4-81.4V527"/>
	<line fill="none" stroke="#FFFFFF" stroke-width="6" stroke-miterlimit="10" x1="999" y1="462.7" x2="999" y2="937.3"/>
	<g>
		<g>
			<polygon fill="#EDE7F3" points="206,579.9 102.2,400.1 206,220.2 413.7,220.2 517.5,400.1 413.7,579.9 			"/>
			<polygon fill="#EDE7F3" points="551,759.7 447.2,579.9 551,400.1 758.6,400.1 862.5,579.9 758.6,759.7 			"/>
			<polygon fill="#EDE7F3" points="1584.3,579.9 1480.5,400.1 1584.3,220.2 1792,220.2 1895.8,400.1 1792,579.9 			"/>
			<polygon fill="#EDE7F3" points="893.9,579.9 790.1,400.1 893.9,220.2 1101.6,220.2 1205.4,400.1 1101.6,579.9 			"/>
			<polygon fill="#EDE7F3" points="1238.9,759.7 1135.1,579.9 1238.9,400.1 1446.6,400.1 1550.4,579.9 1446.6,759.7 			"/>
		</g>
		<g>
			<g>
				<path fill="#F9A191" d="M1125.9,1250.9v401.4H845.7v-69.4c0,0-58.5-10.4-81.4-66.3c-32-79.8,8.2-138.9,8.2-138.9v-56.8
					l-61.2-118.3c-3.9-7.5,0.6-16.7,8.9-18.2c36.8-6.6,61.4,2.6,77.2,14.5c2.2,1.6,4.2,3.3,6,5c11.5,10.5,17.9,25.6,17.9,41.2v5.9
					H1125.9z"/>
				<rect x="845.7" y="1619" fill="#EF7C6D" width="280.2" height="33.3"/>
				<path fill="#EF7C6D" d="M1125.9,1250.9v302.9H844.5c-25.9,0-47-21.1-47-47v-308.1c2.2,1.6,4.2,3.3,6,5
					c11.5,10.5,17.9,25.6,17.9,41.2v5.9H1125.9z"/>
				<path fill="#EDE7F3" d="M1160,1543.8H844.5c-20.4,0-37-16.5-37-37v-630c0-20.4,16.5-37,37-37H1160c20.4,0,37,16.5,37,37v630
					C1197,1527.3,1180.4,1543.8,1160,1543.8z"/>
				<path fill="#CDD0E1" d="M1160,839.9h-155.4v703.9H1160c20.4,0,37-16.5,37-37v-630C1197,856.4,1180.4,839.9,1160,839.9z"/>
				<path fill="#527BFF" d="M844.5,1446.5c-4.9,0-8.8-4-8.8-8.8V876.8c0-4.9,4-8.8,8.8-8.8H1160c4.9,0,8.8,4,8.8,8.8v560.8
					c0,4.9-4,8.8-8.8,8.8H844.5z"/>
				<path fill="#3F599B" d="M1160,868h-156.9v578.5H1160c4.9,0,8.8-4,8.8-8.8V876.8C1168.9,872,1164.9,868,1160,868z"/>
				<circle fill="#67707F" cx="1002.2" cy="1490.9" r="25.7"/>
				<rect x="802.1" y="1632.5" fill="#EDE7F3" width="366.8" height="43.7"/>
				<rect x="986.6" y="1632.5" fill="#CDD0E1" width="182.2" height="43.7"/>
				<rect x="775.4" y="1676.2" fill="#362544" width="420" height="323.8"/>
				<rect x="986.6" y="1676.2" fill="#210F2C" width="208.8" height="323.8"/>
				<g>
					<g>
						<g>
							<path fill="#210F2C" d="M1136.6,1301.4v50.8H867.9v-50.8c0-31,19-57.5,45.7-67.7c7.6-2.9,15.9-4.5,24.4-4.5h128.3
								c8.6,0,16.8,1.6,24.4,4.5C1117.5,1244,1136.6,1270.4,1136.6,1301.4z"/>
							<path fill="#362544" d="M1111.7,1301.4v50.8H867.9v-50.8c0-31,19-57.5,45.7-67.7c7.6-2.9,15.9-4.5,24.4-4.5h103.4
								c8.6,0,16.8,1.6,24.4,4.5C1092.6,1244,1111.7,1270.4,1111.7,1301.4z"/>
							<path fill="#3664DD" d="M1090.8,1233.8c-24.3,69.7-88.6,118.5-88.6,118.5s-64.3-48.8-88.6-118.5c7.6-2.9,15.9-4.5,24.4-4.5
								h128.3C1075,1229.3,1083.2,1230.8,1090.8,1233.8z"/>
							<polygon fill="#3F599B" points="1041.7,1229.3 1027,1229.3 1002.2,1278.9 977.4,1229.3 962.7,1229.3 949,1237.7 968.8,1309 
								1002.2,1295 1035.6,1309 1055.5,1237.7 							"/>
							<g>
								<g>
									<polygon fill="#527BFF" points="1002.2,1289.8 1032.5,1302.4 1049.9,1239.9 1032.5,1229.3 									"/>
									<polygon fill="#527BFF" points="1002.2,1289.8 972,1302.4 954.6,1239.9 972,1229.3 									"/>
								</g>
							</g>
							<path fill="#EF7C6D" d="M1093.4,1033.6v92.2c0,17-5.3,33.7-15.5,47.6c-15.2,20.6-37.6,33-54.1,40c-13.8,5.8-29.3,5.8-43.1,0
								c-6.6-2.8-14.2-6.4-21.8-11.2c-11.5-7.1-23.1-16.5-32.2-28.8c-10.2-13.9-15.5-30.6-15.5-47.6v-92.2
								c0-32.3,26.9-58.5,60.1-58.5h62c8.3,0,16.2,1.6,23.4,4.6C1078.2,988.6,1093.4,1009.4,1093.4,1033.6z"/>
							<path fill="#F9A191" d="M1081.2,1026.8v92.2c0,17-5.3,33.7-15.5,47.6c-15.2,20.6-37.6,33-54.1,40c-13.8,5.8-29.3,5.8-43.1,0
								c-3-1.3-6.2-2.7-9.6-4.4c-11.5-7.1-23.1-16.5-32.2-28.8c-10.2-13.9-15.5-30.6-15.5-47.6v-92.2c0-32.3,26.9-58.5,60.1-58.5h62
								c8.3,0,16.2,1.6,23.4,4.6C1071.5,990.3,1081.2,1007.5,1081.2,1026.8z"/>
							<polygon fill="#F9A191" points="1032.5,1207 1032.5,1253 1002.2,1289.8 972,1253 972,1207 							"/>
							<path fill="#EF7C6D" d="M1032.5,1207v6.3c-5.3,2.9-10.5,5.3-15.2,7.3c-13.8,5.8-29.3,5.8-43.1,0c-0.7-0.3-1.4-0.6-2.1-0.9
								V1207H1032.5z"/>
							<path fill="#953349" d="M1092.9,989.1c-12.8-13.5-41.2-34.9-90.6-32c-49.5-2.8-77.8,18.5-90.6,32c-5.4,5.7-8.1,13.6-7.3,21.4
								l6.8,68.4l0.5,5.5l-0.5,3v38.3c0,17,5.3,33.7,15.5,47.6c15.2,20.6,37.6,33,54.1,40c13.8,5.8,29.3,5.8,43.1,0
								c16.5-6.9,38.9-19.4,54.1-40c10.2-13.9,15.5-30.6,15.5-47.6v-38.2l-0.6-3.1l0.6-5.6l6.8-68.3
								C1101,1002.7,1098.3,994.8,1092.9,989.1z M1088,1128c0,0-3.4,60.5-66.8,77c0,0-7.2-14.5-18.9-15c-11.7,0.5-18.9,15-18.9,15
								c-63.4-16.5-66.8-77-66.8-77v-47c0,0,10.2-42.6,15-62c4.8-19.4,31.5-26.6,31.5-26.6c14.6,7.5,35.6,7.8,39.2,7.8
								c3.6,0,24.7-0.3,39.2-7.8c0,0,26.6,7.3,31.5,26.6c4.8,19.4,15,62,15,62V1128z"/>
						</g>
						<path fill="#CF5A56" d="M1023.8,1149.9c-2.1,0.4-3.6,2.6-5.4,3.8c-2,1.3-4.2,2-6.4,2.5c-4.8,1-9.1-1-13.8-1.6
							c-0.3,0-0.4,0.3-0.3,0.5c2.4,5.1,9.7,6.5,14.7,6c3-0.3,5.9-1.3,8.5-2.8c2.4-1.4,5.3-3.3,5.6-6.3
							C1026.8,1150.6,1025.2,1149.7,1023.8,1149.9z"/>
						<g>
							<path fill="#EF7C6D" d="M1008.8,1118.7c0,3.6-2.9,6.5-6.5,6.5s-6.5-2.9-6.5-6.5c0-3.6,2.9-51.1,6.5-51.1
								S1008.8,1115.1,1008.8,1118.7z"/>
							<g>
								<g>
									<ellipse fill="#362544" cx="962" cy="1072.7" rx="4.8" ry="10.9"/>
									<path fill="#362544" d="M971.5,1056.4c-6.2-1.4-12.7-1.4-18.9,0c-2.4,0.5-4.8-0.8-5.5-3.1c0,0,0-0.1,0-0.1
										c-0.9-2.6,0.7-5.5,3.4-6.1c7.7-1.8,15.6-1.8,23.3,0c2.7,0.6,4.3,3.5,3.4,6.1c0,0,0,0.1,0,0.1
										C976.3,1055.7,973.9,1057,971.5,1056.4z"/>
								</g>
								<g>
									<ellipse fill="#362544" cx="1042.4" cy="1072.7" rx="4.8" ry="10.9"/>
									<path fill="#362544" d="M1051.9,1056.4c-6.2-1.4-12.7-1.4-18.9,0c-2.4,0.5-4.8-0.8-5.5-3.1c0,0,0-0.1,0-0.1
										c-0.9-2.6,0.7-5.5,3.4-6.1c7.7-1.8,15.6-1.8,23.3,0c2.7,0.6,4.3,3.5,3.4,6.1c0,0,0,0.1,0,0.1
										C1056.7,1055.7,1054.3,1057,1051.9,1056.4z"/>
								</g>
							</g>
							<g>
								<circle fill="#F6938B" cx="1052.8" cy="1129.9" r="26.2"/>
								<circle fill="#F6938B" cx="951.7" cy="1129.9" r="26.2"/>
							</g>
						</g>
						<rect x="997.9" y="1293.7" fill="#3F599B" width="7.8" height="58.6"/>
						<circle fill="#FFFFFF" cx="1010.9" cy="1315.1" r="3.6"/>
						<circle fill="#FFFFFF" cx="1010.9" cy="1332.9" r="3.6"/>
						<path fill="#772538" d="M1092.4,1008.5c-0.7-1.6-2.4-2.2-3.8-3.1c-2-1.2-3.7-2.8-5.3-4.5c-1.6-1.7-2.8-3.7-3.9-5.8
							c-0.8-1.4-1-3.7-2.5-4.6c-0.2-0.1-0.5-0.1-0.6,0.1c-0.8,1.5,0.3,3.4,0.9,4.8c1.1,2.3,2.4,4.4,4,6.4c1.5,1.9,3.3,3.6,5.2,5.1
							c1.5,1.1,3.5,2.9,5.5,2.3C1092.3,1009.3,1092.6,1008.9,1092.4,1008.5z"/>
						<path fill="#772538" d="M1093.1,1025.2c-1.7-3-5.2-4.9-7.7-7.2c-2.9-2.6-5.4-5.6-7.7-8.8c-2.2-3-4.1-6.3-5.7-9.7
							c-1.8-3.7-3.6-7.7-4.8-11.5c-0.1-0.3-0.5-0.2-0.4,0.1c0.6,4.1,1.2,7.8,2.8,11.6c1.6,3.8,3.5,7.4,5.9,10.8
							c2.2,3.2,4.7,6.1,7.4,8.9c2.5,2.6,5.8,6.2,9.5,6.7C1092.9,1026.2,1093.4,1025.7,1093.1,1025.2z"/>
						<path fill="#772538" d="M952.6,978.7c-1.4,0.7-2.1,2.2-3,3.5c-1.3,1.7-2.6,3.4-4,5c-2.8,3.2-6.2,6.1-9.7,8.7
							c-3.4,2.5-7,4.6-10.8,6.4c-1.9,0.9-3.8,1.7-5.7,2.4c-1.8,0.7-3.8,1.2-5.2,2.6c-0.6,0.6-0.4,1.7,0.5,1.9
							c3.7,0.8,8.3-2,11.5-3.7c3.9-2,7.4-4.4,10.8-7.1c3.4-2.7,6.8-5.9,9.5-9.3c1.3-1.6,2.6-3.2,3.8-4.9c1.1-1.6,2.7-3.4,2.7-5.4
							C953,978.7,952.8,978.6,952.6,978.7z"/>
						<path fill="#772538" d="M934.7,979.2c-2.3,3-5.8,5.6-8.8,7.8c-2.9,2.1-6.6,3.3-9.1,5.9c-0.4,0.4-0.1,1,0.5,1.1
							c3.9,0.4,7.6-2.3,10.5-4.6c3.5-2.7,5.4-6.1,7.5-9.8C935.5,979.1,934.9,978.8,934.7,979.2z"/>
						<path fill="#772538" d="M922.4,1018.4c-0.1-0.5-0.7-0.5-0.7,0c0,2.9-0.4,5.9-0.6,8.8c-0.2,3.1-0.6,6.2-1.2,9.3
							c-0.6,2.9-1.3,5.7-2.2,8.5c-0.9,2.8-2.2,5.6-2.3,8.6c0,0.4,0.4,0.5,0.7,0.3c4-4,5.2-11.4,6.2-16.7c0.5-3,0.9-6,1-9.1
							C923.4,1024.7,922.8,1021.8,922.4,1018.4z"/>
						<path fill="#772538" d="M1088.4,1047.8c-0.6-2.3-0.9-4.6-1.3-6.9c-0.5-2.7-1.1-5.7-1.1-8.5c0-0.6-0.9-0.6-1,0
							c-0.2,2.7-0.6,5.2-0.4,8c0.1,2.5,0.5,4.9,0.9,7.4c0.8,4.5,2,10.1,5.3,13.5c0.4,0.4,1.1,0.1,1.1-0.4
							C1091.5,1056.4,1089.5,1052,1088.4,1047.8z"/>
					</g>
					<g>
						<g>
							<g>
								<ellipse fill="#013668" cx="889.2" cy="1102.6" rx="20.4" ry="27.3"/>
							</g>
							<g>
								<path d="M918.8,1124c0,6.9-5.4,12.5-12.2,12.5h-9.1c-6.7,0-12.2-5.6-12.2-12.5v-43.8c0-6.9,5.4-12.5,12.2-12.5h9.1
									c6.7,0,12.2,5.6,12.2,12.5V1124z"/>
							</g>
						</g>
						<g>
							<g>
								<ellipse fill="#013668" cx="1115.2" cy="1102.6" rx="20.4" ry="27.3"/>
							</g>
							<g>
								<path d="M1085.6,1124c0,6.9,5.4,12.5,12.2,12.5h9.1c6.7,0,12.2-5.6,12.2-12.5v-43.8c0-6.9-5.4-12.5-12.2-12.5h-9.1
									c-6.7,0-12.2,5.6-12.2,12.5V1124z"/>
							</g>
						</g>
						<g>
							<path d="M1106.8,1074.3h-5c0-71.5-45.4-129.6-101.2-129.6c-55.8,0-101.2,58.1-101.2,129.6h-5c0-74.2,47.7-134.7,106.3-134.7
								S1106.8,1000.1,1106.8,1074.3z"/>
						</g>
						<g>
							<path d="M1036.7,1187.5v-3.9c33.9,0,61.4-27.5,61.4-61.4h3.9C1102,1158.2,1072.7,1187.5,1036.7,1187.5z"/>
						</g>
						<g>
							<ellipse cx="1030.3" cy="1186.7" rx="10.7" ry="10.2"/>
						</g>
					</g>
					<path fill="#953349" d="M974.7,960.5c0,0,50.4-13.3,61-23.1c0,0,4.4,12-5.3,27L974.7,960.5z"/>
					<path fill="#953349" d="M992.6,971.2c0,0,50.4-13.3,61-23.1c0,0,4.4,12-5.3,27L992.6,971.2z"/>
					<path fill="#772538" d="M1050.4,965.4c-1.5,3.3-2.6,6.6-5.6,8.9c-2.8,2.1-6.2,3.9-9.4,5.2c-3.9,1.6-8.2,2.4-12.4,3
						c-4,0.5-8.7-0.1-12.5,1.6c-2,1-1.2,3.7,0.6,4.4c2.2,0.8,4.5,0.4,6.7,0.2c2.6-0.2,5.1-0.6,7.6-1c4.6-0.8,9.1-2.1,13.1-4.3
						c3.5-1.9,6.3-4.5,8.6-7.8c2-2.9,4.5-6.1,4.8-9.8C1052,965,1050.7,964.6,1050.4,965.4z"/>
					<path fill="#772538" d="M1032.1,952.9c-2.9,3.1-4.9,6.8-7.8,9.9c-2.9,3.2-6.5,5.8-10,8.2c-3.5,2.4-7.4,4.3-11.5,5.8
						c-2,0.7-4.1,1.2-6.2,1.8c-2.2,0.6-4.4,0.8-5.9,2.7c-0.4,0.5-0.7,1.5,0,2c3.6,2.8,9,0.5,12.8-0.9c4.7-1.8,9.1-4.2,13.1-7.2
						c3.8-2.8,6.8-6.2,9.6-9.9c2.7-3.5,5.7-7.7,6.2-12.2C1032.6,952.8,1032.2,952.7,1032.1,952.9z"/>
					<path fill="#772538" d="M1011.9,953.4c-3.6,1.5-6.8,3.6-10.4,5.2c-3.8,1.8-7.8,3.1-11.8,4.4c-3.9,1.2-8,2.1-12,2.7
						c-1.9,0.3-3.9,0.5-5.8,0.7c-1.9,0.2-3.6,0.5-4.6,2.1c-0.3,0.4-0.3,1.2,0,1.6c2.3,3.1,7.8,1.5,11.1,1c4.3-0.6,8.6-2,12.7-3.5
						c4.1-1.5,7.9-3.5,11.5-5.8c3.6-2.3,7.2-4.6,9.8-8C1012.5,953.7,1012.2,953.3,1011.9,953.4z"/>
				</g>
				<g>
					<g>
						<g>
							<path fill="#F9A191" d="M1057.3,1208.1L1057.3,1208.1c-13.4,13-13.4,34.4,0,47.4h0c12.7,12.3,29.6,19.2,47.3,19.2h116.7
								c23.7,0,42.8-19.2,42.8-42.8v0c0-23.7-19.2-42.8-42.8-42.8h-116.7C1086.9,1189,1070,1195.8,1057.3,1208.1z"/>
							<path fill="#EF7C6D" d="M1047.3,1232.7c0.2,8.3,3.5,16.5,10,22.8l0,0c12.7,12.3,29.6,19.2,47.3,19.2h116.7
								c23.4,0,42.4-18.7,42.8-42H1047.3z"/>
							<g>
								<path fill="#EDE7F3" d="M1107,1205.4h-2.3c-13.5,0-26.2,5.2-35.8,14.5c-3.2,3.1-5,7.4-5,11.9c0,4.5,1.8,8.7,5,11.9
									c9.7,9.4,22.4,14.5,35.8,14.5h2.3V1205.4z"/>
							</g>
						</g>
						<g>
							<path fill="#F9A191" d="M1057.3,1293.3L1057.3,1293.3c-13.4,13-13.4,34.4,0,47.4l0,0c12.7,12.3,29.6,19.2,47.3,19.2h116.7
								c23.7,0,42.8-19.2,42.8-42.8l0,0c0-23.7-19.2-42.8-42.8-42.8h-116.7C1086.9,1274.1,1070,1281,1057.3,1293.3z"/>
							<path fill="#EF7C6D" d="M1047.3,1315.2c-0.5,9.2,2.8,18.5,10,25.4v0c12.7,12.3,29.6,19.2,47.3,19.2h116.7
								c23.7,0,42.8-19.2,42.8-42.8v0c0-0.6,0-1.2,0-1.8H1047.3z"/>
							<g>
								<path fill="#EDE7F3" d="M1107,1290.5h-2.3c-13.5,0-26.2,5.2-35.8,14.5c-3.2,3.1-5,7.4-5,11.9c0,4.5,1.8,8.7,5,11.9
									c9.7,9.4,22.4,14.5,35.8,14.5h2.3V1290.5z"/>
							</g>
						</g>
						<g>
							<path fill="#F9A191" d="M1057.3,1378.4L1057.3,1378.4c-13.4,13-13.4,34.4,0,47.4h0c12.7,12.3,29.6,19.2,47.3,19.2h116.7
								c23.7,0,42.8-19.2,42.8-42.8v0c0-23.7-19.2-42.8-42.8-42.8h-116.7C1086.9,1359.2,1070,1366.1,1057.3,1378.4z"/>
							<path fill="#EF7C6D" d="M1047.3,1400.7c-0.4,9.1,2.9,18.2,10,25.1v0c12.7,12.3,29.6,19.2,47.3,19.2h116.7
								c23.7,0,42.8-19.2,42.8-42.8v0c0-0.5,0-0.9,0-1.4H1047.3z"/>
							<g>
								<path fill="#EDE7F3" d="M1107,1375.7h-2.3c-13.5,0-26.2,5.2-35.8,14.5c-3.2,3.1-5,7.4-5,11.9c0,4.5,1.8,8.7,5,11.9
									c9.7,9.4,22.4,14.5,35.8,14.5h2.3V1375.7z"/>
							</g>
						</g>
						<g>
							<path fill="#F9A191" d="M1057.3,1463.5L1057.3,1463.5c-13.4,13-13.4,34.4,0,47.4h0c12.7,12.3,29.6,19.2,47.3,19.2h116.7
								c23.7,0,42.8-19.2,42.8-42.8v0c0-23.7-19.2-42.8-42.8-42.8h-116.7C1086.9,1444.3,1070,1451.2,1057.3,1463.5z"/>
							<path fill="#EF7C6D" d="M1047.3,1486.2c-0.3,8.9,3.1,18,10,24.7l0,0c12.7,12.3,29.6,19.2,47.3,19.2h116.7
								c23.7,0,42.8-19.2,42.8-42.8v0c0-0.3,0-0.7,0-1H1047.3z"/>
							<g>
								<path fill="#EDE7F3" d="M1107,1460.8h-2.3c-13.5,0-26.2,5.2-35.8,14.5c-3.2,3.1-5,7.4-5,11.9c0,4.5,1.8,8.7,5,11.9
									c9.7,9.4,22.4,14.5,35.8,14.5h2.3V1460.8z"/>
							</g>
						</g>
					</g>
				</g>
			</g>
			<circle fill="#EDE7F3" cx="1133.7" cy="1771" r="22"/>
		</g>
		<polygon fill="#3664DD" points="217.2,560.5 124.6,400.1 217.2,239.7 402.5,239.7 495.1,400.1 402.5,560.5 		"/>
		<polygon fill="#FBB434" points="562.2,740.3 469.6,579.9 562.2,419.5 747.4,419.5 840,579.9 747.4,740.3 		"/>
		<polygon fill="#3664DD" points="1595.5,560.5 1502.9,400.1 1595.5,239.7 1780.8,239.7 1873.4,400.1 1780.8,560.5 		"/>
		<polygon fill="#3664DD" points="905.2,560.5 812.6,400.1 905.2,239.7 1090.4,239.7 1183,400.1 1090.4,560.5 		"/>
		<polygon fill="#FBB434" points="1250.1,740.3 1157.5,579.9 1250.1,419.5 1435.3,419.5 1527.9,579.9 1435.3,740.3 		"/>
		<g>
			<rect x="607.1" y="487.1" fill="#EDE7F3" width="18.2" height="117.2"/>
			<polygon fill="#EDE7F3" points="625.3,487.1 607.3,487.1 599.1,514.5 633.4,514.5 			"/>
			<polygon fill="#D3DAE2" points="607.3,541.9 625.3,541.9 633.4,514.5 599.1,514.5 			"/>
			<path fill="#E72245" d="M640,602.4v56.9c0,6.7-5.4,12.1-12.1,12.1h-23.3c-6.7,0-12.1-5.4-12.1-12.1v-56.9H640z"/>
			<path fill="#BB1937" d="M640,602.4v12.7c-0.7,0.2-1.4,0.3-2.1,0.3h-43.3c-0.7,0-1.4-0.1-2.1-0.3v-12.7H640z"/>
			<g>
				<path fill="#362544" d="M603,661.3h-0.7c-1.7,0-3.1-1.4-3.1-3.1v-34.4c0-1.7,1.4-3.1,3.1-3.1h0.7c1.7,0,3.1,1.4,3.1,3.1v34.4
					C606.1,659.9,604.7,661.3,603,661.3z"/>
				<path fill="#362544" d="M616.6,661.3h-0.7c-1.7,0-3.1-1.4-3.1-3.1v-34.4c0-1.7,1.4-3.1,3.1-3.1h0.7c1.7,0,3.1,1.4,3.1,3.1v34.4
					C619.7,659.9,618.3,661.3,616.6,661.3z"/>
				<path fill="#362544" d="M630.3,661.3h-0.7c-1.7,0-3.1-1.4-3.1-3.1v-34.4c0-1.7,1.4-3.1,3.1-3.1h0.7c1.7,0,3.1,1.4,3.1,3.1v34.4
					C633.4,659.9,632,661.3,630.3,661.3z"/>
			</g>
			<path fill="#EDE7F3" d="M722.5,531.7v-34.5L705,487.1v37.3h-24.8v-37.3l-17.5,10.1v34.5l15.4,8.9v75.8
				c-9.3,5.1-15.6,15-15.6,26.3c0,16.6,13.4,30,30,30s30-13.4,30-30c0-11.3-6.2-21.1-15.4-26.2v-75.9L722.5,531.7z M708.9,642.7
				c0,9.1-7.4,16.5-16.5,16.5c-9.1,0-16.5-7.4-16.5-16.5s7.4-16.5,16.5-16.5C701.6,626.2,708.9,633.6,708.9,642.7z"/>
			<path fill="#D3DAE2" d="M693,659.1c-0.2,0-0.3,0-0.5,0c-9.1,0-16.5-7.4-16.5-16.5s7.4-16.5,16.5-16.5c0.2,0,0.3,0,0.5,0V524.4
				h-12.8v-37.3l-17.5,10.1v34.5l15.4,8.9v75.8c-9.3,5.1-15.6,15-15.6,26.3c0,16.6,13.4,30,30,30c0.2,0,0.3,0,0.5,0V659.1z"/>
			<path fill="#E72245" d="M637.9,610.1h-43.3c-4.1,0-7.4-3.3-7.4-7.4l0,0c0-4.1,3.3-7.4,7.4-7.4h43.3c4.1,0,7.4,3.3,7.4,7.4l0,0
				C645.4,606.7,642,610.1,637.9,610.1z"/>
		</g>
		<g>
			<rect x="1629.9" y="388.8" fill="#EDE7F3" width="19.5" height="85.6"/>
			<rect x="1591.8" y="378.2" fill="#362544" width="38" height="107"/>
			<rect x="1629.9" y="433.2" fill="#CDD0E1" width="19.5" height="41.3"/>
			<rect x="1591.8" y="433.2" fill="#210F2C" width="38" height="51.9"/>
			<rect x="1649.2" y="401.7" fill="#F9A191" width="55.3" height="59.9"/>
			<path fill="#F9A191" d="M1755,378.9v95.6h-79.3c-9.7,0-17.5-7.8-17.5-17.5v-55.3c7.5-19.1,19.1-34.3,36.3-44.1v-37
				c0-1.6,0.6-3,1.7-4c1-1,2.5-1.7,4-1.7c11.9,0,21.5,9.6,21.5,21.5v42.4H1755z"/>
			<path fill="#EF7C6D" d="M1700.1,315c4.1,0,8,1.2,11.3,3.2c-0.6,0.3-1.2,0.7-1.6,1.1c-1,1-1.7,2.5-1.7,4.1v36.9
				c-19.9,9.7-33.4,31.7-36.3,49.2h-22.6v-7.8h8.9c7.5-19.1,19.1-34.3,36.3-44.1v-37c0-1.6,0.6-3,1.7-4
				C1697.1,315.6,1698.5,315,1700.1,315z"/>
			<path fill="#EF7C6D" d="M1755,378.9v95.6h-43.8c-3.1-3.1-4.9-7.3-4.9-11.9c0-5.8,3-11,7.5-14c-2-2.8-3.2-6.2-3.2-9.9
				c0-5.7,2.8-10.7,7.1-13.8c-2.1-2.8-3.4-6.3-3.4-10.1c0-5.5,2.7-10.4,6.8-13.5c-2.2-2.9-3.6-6.5-3.6-10.4c0-4.7,1.9-8.9,4.9-12
				H1755z"/>
			<g>
				<path fill="#F9A191" d="M1772.5,402.8h-38.1c-6.6,0-12-5.4-12-12v0c0-6.6,5.4-12,12-12h38.1c6.6,0,12,5.4,12,12v0
					C1784.5,397.4,1779.1,402.8,1772.5,402.8z"/>
				<path fill="#F9A191" d="M1769.3,426.7h-38.1c-6.6,0-12-5.4-12-12v0c0-6.6,5.4-12,12-12h38.1c6.6,0,12,5.4,12,12v0
					C1781.3,421.3,1775.9,426.7,1769.3,426.7z"/>
				<path fill="#F9A191" d="M1765.6,450.6h-38.1c-6.6,0-12-5.4-12-12l0,0c0-6.6,5.4-12,12-12h38.1c6.6,0,12,5.4,12,12l0,0
					C1777.5,445.2,1772.2,450.6,1765.6,450.6z"/>
				<path fill="#F9A191" d="M1761.3,474.5h-38.1c-6.6,0-12-5.4-12-12v0c0-6.6,5.4-12,12-12h38.1c6.6,0,12,5.4,12,12v0
					C1773.3,469.1,1767.9,474.5,1761.3,474.5z"/>
			</g>
			<g>
				<path fill="#EF7C6D" d="M1722.5,392c0.6,6.1,5.7,10.8,11.9,10.8h38.1c6.2,0,11.3-4.7,11.9-10.8H1722.5z"/>
				<path fill="#EF7C6D" d="M1719.3,415c0.1,6.5,5.4,11.7,11.9,11.7h38.1c6.5,0,11.8-5.2,11.9-11.7H1719.3z"/>
				<path fill="#EF7C6D" d="M1715.7,441c1.1,5.5,5.9,9.6,11.7,9.6h38.1c5.8,0,10.6-4.1,11.7-9.6H1715.7z"/>
				<path fill="#EF7C6D" d="M1711.3,463.5c0.5,6.1,5.6,11,11.9,11h38.1c6.3,0,11.4-4.8,11.9-11H1711.3z"/>
			</g>
		</g>
		<g>
			<path fill="#E72245" d="M1065.3,459.4l-10.3,28.2l-5.3,14.4c0,0-53.6,13.6-105.8-38.5c-52.1-52.1-38.5-105.8-38.5-105.8l13-4.7
				l29.7-10.8c12.2,11.1,12.3,32.9,12,38.7c0,0.9-0.1,1.4-0.1,1.4l-15.4,15.4c17.8,25.4,39.7,47.4,65.1,65.1l15.4-15.4
				C1025.2,447.4,1052.5,445.2,1065.3,459.4z"/>
			<path fill="#BB1937" d="M1065.3,459.4l-10.3,28.2c-17.5,1.4-57.5-0.7-96.7-39.8c-37.8-37.8-41-76.4-40-94.8l29.7-10.8
				c12.2,11.1,12.3,32.9,12,38.7l-1,1c0.2,0.3,0.4,0.5,0.6,0.8l-14.9,14.9c17.8,25.4,39.7,47.4,65.1,65.1l15.4-15.4
				C1025.2,447.4,1052.5,445.2,1065.3,459.4z"/>
			<g>
				<text transform="matrix(1 0 0 1 973.0364 417.9521)" fill="#362544" font-family="'Montserrat-SemiBold'" font-size="71.8109">24</text>
			</g>
			<g>
				<g>
					<path fill="#FBB434" d="M1071.5,448.7c-1.7,0-3.4-0.4-5-1.3c-4.8-2.7-6.5-8.8-3.7-13.6c5.8-10.1,8.8-21.7,8.8-33.4
						c0-37.1-30.2-67.3-67.2-67.4c-5.5,0-10-4.5-10-10c0-5.5,4.5-10,10-10c0,0,0,0,0,0c48.1,0.1,87.2,39.3,87.2,87.4
						c0,15.2-4,30.2-11.5,43.3C1078.4,446.9,1075,448.7,1071.5,448.7z"/>
				</g>
				<g>
					<g>
						<polygon fill="#FBB434" points="1018.2,349.2 966.9,332.6 1006.9,296.5 						"/>
					</g>
				</g>
			</g>
		</g>
		<g>
			<g>
				<path fill="#EDE7F3" d="M1361.6,665.4h-108.5c-6.9,0-12.4-5.6-12.4-12.4V501.5c0-6.9,5.6-12.4,12.4-12.4h108.5
					c6.9,0,12.4,5.6,12.4,12.4V653C1374,659.9,1368.4,665.4,1361.6,665.4z"/>
				<g>
					<path fill="#D3DAE2" d="M1368.9,491.5l-122.5,172c1.9,1.3,4.3,2,6.7,2h108.5c6.9,0,12.4-5.6,12.4-12.4V501.5
						C1374,497.4,1372,493.7,1368.9,491.5z"/>
				</g>
				<g>
					<path fill="#67707F" d="M1359,518.1h-103.4c-2.6,0-4.7-2.1-4.7-4.7l0,0c0-2.6,2.1-4.7,4.7-4.7H1359c2.6,0,4.7,2.1,4.7,4.7l0,0
						C1363.7,516,1361.6,518.1,1359,518.1z"/>
					<path fill="#67707F" d="M1359,536.3h-103.4c-2.6,0-4.7-2.1-4.7-4.7l0,0c0-2.6,2.1-4.7,4.7-4.7H1359c2.6,0,4.7,2.1,4.7,4.7l0,0
						C1363.7,534.2,1361.6,536.3,1359,536.3z"/>
					<path fill="#67707F" d="M1359,554.6h-103.4c-2.6,0-4.7-2.1-4.7-4.7l0,0c0-2.6,2.1-4.7,4.7-4.7H1359c2.6,0,4.7,2.1,4.7,4.7l0,0
						C1363.7,552.5,1361.6,554.6,1359,554.6z"/>
					<path fill="#67707F" d="M1359,572.8h-103.4c-2.6,0-4.7-2.1-4.7-4.7l0,0c0-2.6,2.1-4.7,4.7-4.7H1359c2.6,0,4.7,2.1,4.7,4.7l0,0
						C1363.7,570.7,1361.6,572.8,1359,572.8z"/>
					<path fill="#67707F" d="M1359,591h-103.4c-2.6,0-4.7-2.1-4.7-4.7l0,0c0-2.6,2.1-4.7,4.7-4.7H1359c2.6,0,4.7,2.1,4.7,4.7l0,0
						C1363.7,589,1361.6,591,1359,591z"/>
					<path fill="#67707F" d="M1359,609.3h-103.4c-2.6,0-4.7-2.1-4.7-4.7l0,0c0-2.6,2.1-4.7,4.7-4.7H1359c2.6,0,4.7,2.1,4.7,4.7l0,0
						C1363.7,607.2,1361.6,609.3,1359,609.3z"/>
					<path fill="#67707F" d="M1359,627.5h-103.4c-2.6,0-4.7-2.1-4.7-4.7l0,0c0-2.6,2.1-4.7,4.7-4.7H1359c2.6,0,4.7,2.1,4.7,4.7l0,0
						C1363.7,625.4,1361.6,627.5,1359,627.5z"/>
					<path fill="#67707F" d="M1359,645.8h-103.4c-2.6,0-4.7-2.1-4.7-4.7l0,0c0-2.6,2.1-4.7,4.7-4.7H1359c2.6,0,4.7,2.1,4.7,4.7l0,0
						C1363.7,643.7,1361.6,645.8,1359,645.8z"/>
				</g>
			</g>
			<g>
				<g>
					<path fill="#495563" d="M1413,670.7c-0.8,0-1.5-0.7-1.5-1.5v-7.7c0-0.8,0.7-1.5,1.5-1.5s1.5,0.7,1.5,1.5v7.7
						C1414.5,670,1413.8,670.7,1413,670.7z"/>
				</g>
				<path fill="#67707F" d="M1413,665.4L1413,665.4c-3.5,0-6.3-2.8-6.3-6.3v-18.3h12.5v18.3C1419.3,662.6,1416.5,665.4,1413,665.4z"
					/>
				<path fill="#E72245" d="M1419.3,513.9h-12.5v-18.4c0-3.5,2.8-6.3,6.3-6.3l0,0c3.5,0,6.3,2.8,6.3,6.3V513.9z"/>
				<path fill="#495563" d="M1413,656.7L1413,656.7c-7.5,0-13.6-6.1-13.6-13.6v-84.6h27.2v84.6
					C1426.6,650.6,1420.5,656.7,1413,656.7z"/>
				<g>
					<path fill="#495563" d="M1438.8,581.4c-3.3,0-6-2.7-6-6v-49.5c0-1.3-1-2.3-2.3-2.3h-3.9c-3.3,0-6-2.7-6-6s2.7-6,6-6h3.9
						c7.9,0,14.3,6.4,14.3,14.3v49.5C1444.8,578.7,1442.1,581.4,1438.8,581.4z"/>
				</g>
				<path fill="#67707F" d="M1413,501L1413,501c-8.7,0-15.8,7.1-15.8,15.8v41.6h31.6v-41.6C1428.8,508.1,1421.8,501,1413,501z"/>
			</g>
		</g>
		<g>
			<g>
				<path fill="#FBB434" d="M217.3,335.7v61.9c0,9.4,7.6,17,17,17h89.3c9.4,0,17-7.6,17-17v-61.9c0-9.4-7.6-17-17-17h-89.3
					C224.9,318.7,217.3,326.3,217.3,335.7z"/>
				<path fill="#F69432" d="M217.3,335.7v61.9c0,9.4,7.6,17,17,17H280c9.4,0,17-7.6,17-17v-61.9c0-9.4-7.6-17-17-17h-45.6
					C224.9,318.7,217.3,326.3,217.3,335.7z"/>
				<polygon fill="#F69432" points="246.4,405.5 246.4,441 284.1,405.5 				"/>
			</g>
			<g>
				<circle fill="#EDE7F3" cx="235.3" cy="366.7" r="5.4"/>
				<circle fill="#EDE7F3" cx="252.8" cy="366.7" r="5.4"/>
				<circle fill="#EDE7F3" cx="270.3" cy="366.7" r="5.4"/>
				<circle fill="#EDE7F3" cx="287.8" cy="366.7" r="5.4"/>
				<circle fill="#EDE7F3" cx="305.2" cy="366.7" r="5.4"/>
				<circle fill="#EDE7F3" cx="322.7" cy="366.7" r="5.4"/>
			</g>
			<g>
				<path fill="#E72245" d="M402.4,376.1v61.9c0,9.4-7.6,17-17,17H296c-9.4,0-17-7.6-17-17v-61.9c0-9.4,7.6-17,17-17h89.3
					C394.8,359.1,402.4,366.7,402.4,376.1z"/>
				<path fill="#BB1937" d="M402.4,376.1v61.9c0,9.4-7.6,17-17,17h-45.6c-9.4,0-17-7.6-17-17v-61.9c0-9.4,7.6-17,17-17h45.6
					C394.8,359.1,402.4,366.7,402.4,376.1z"/>
				<polygon fill="#BB1937" points="373.3,445.9 373.3,481.4 335.6,445.9 				"/>
			</g>
			<g>
				<circle fill="#EDE7F3" cx="297" cy="407.1" r="5.4"/>
				<circle fill="#EDE7F3" cx="314.5" cy="407.1" r="5.4"/>
				<circle fill="#EDE7F3" cx="332" cy="407.1" r="5.4"/>
				<circle fill="#EDE7F3" cx="349.4" cy="407.1" r="5.4"/>
				<circle fill="#EDE7F3" cx="366.9" cy="407.1" r="5.4"/>
				<circle fill="#EDE7F3" cx="384.4" cy="407.1" r="5.4"/>
			</g>
		</g>
	</g>
</g>
</svg>
